HIERARCHY
ROOT hips_JNT
{
    OFFSET 0 0 0
    CHANNELS 6 Xposition Yposition Zposition Zrotation Xrotation Yrotation
    JOINT spine_JNT
    {
        OFFSET -0.000424254 9.31981 2.54342
        CHANNELS 3 Zrotation Xrotation Yrotation
        JOINT spine1_JNT
        {
            OFFSET 0 10.8731 -4.54485e-05
            CHANNELS 3 Zrotation Xrotation Yrotation
            JOINT spine2_JNT
            {
                OFFSET 0 12.4264 -5.95116
                CHANNELS 3 Zrotation Xrotation Yrotation
                JOINT neck_JNT
                {
                    OFFSET 0 13.9797 -1.46048
                    CHANNELS 3 Zrotation Xrotation Yrotation
                    JOINT head_JNT
                    {
                        OFFSET 0 5.8702 2.0915
                        CHANNELS 3 Zrotation Xrotation Yrotation
                        End Site
                        {
                            OFFSET 0 0 0
                        }
                    }
                }
                JOINT l_shoulder_JNT
                {
                    OFFSET 4.39914 12.861 -1.48501
                    CHANNELS 3 Zrotation Xrotation Yrotation
                    JOINT l_arm_JNT
                    {
                        OFFSET 8.75735 -2.31198 -0.0490516
                        CHANNELS 3 Zrotation Xrotation Yrotation
                        JOINT l_forearm_JNT
                        {
                            OFFSET 26.9001 -4.76837e-05 1.2666e-05
                            CHANNELS 3 Zrotation Xrotation Yrotation
                            JOINT l_hand_JNT
                            {
                                OFFSET 23.0148 -4.76837e-05 -3.72529e-06
                                CHANNELS 3 Zrotation Xrotation Yrotation
                                JOINT l_handThumb1_JNT
                                {
                                    OFFSET 3.63 -0.779998 2.13
                                    CHANNELS 3 Zrotation Xrotation Yrotation
                                    JOINT l_handThumb2_JNT
                                    {
                                        OFFSET 3.55114 -2.11837 2.24006
                                        CHANNELS 3 Zrotation Xrotation Yrotation
                                        JOINT l_handThumb3_JNT
                                        {
                                            OFFSET 2.15911 -1.11631 0.963467
                                            CHANNELS 3 Zrotation Xrotation Yrotation
                                            End Site
                                            {
                                                OFFSET 0 0 0
                                            }
                                        }
                                    }
                                }
                                JOINT l_handIndex1_JNT
                                {
                                    OFFSET 10.5149 -0.0410199 2.19757
                                    CHANNELS 3 Zrotation Xrotation Yrotation
                                    JOINT l_handIndex2_JNT
                                    {
                                        OFFSET 2.75183 -0.102866 -0.139054
                                        CHANNELS 3 Zrotation Xrotation Yrotation
                                        JOINT l_handIndex3_JNT
                                        {
                                            OFFSET 2.35301 -0.0733972 -0.0904871
                                            CHANNELS 3 Zrotation Xrotation Yrotation
                                            End Site
                                            {
                                                OFFSET 0 0 0
                                            }
                                        }
                                    }
                                }
                                JOINT l_handMiddle1_JNT
                                {
                                    OFFSET 10.0671 0.139201 0.0595726
                                    CHANNELS 3 Zrotation Xrotation Yrotation
                                    JOINT l_handMiddle2_JNT
                                    {
                                        OFFSET 3.90903 -0.288403 -0.119066
                                        CHANNELS 3 Zrotation Xrotation Yrotation
                                        JOINT l_handMiddle3_JNT
                                        {
                                            OFFSET 2.3284 -0.0191092 -0.0594396
                                            CHANNELS 3 Zrotation Xrotation Yrotation
                                            End Site
                                            {
                                                OFFSET 0 0 0
                                            }
                                        }
                                    }
                                }
                                JOINT l_handRing1_JNT
                                {
                                    OFFSET 9.46811 0.132239 -1.80983
                                    CHANNELS 3 Zrotation Xrotation Yrotation
                                    JOINT l_handRing2_JNT
                                    {
                                        OFFSET 3.28153 -0.224054 -0.0339366
                                        CHANNELS 3 Zrotation Xrotation Yrotation
                                        JOINT l_handRing3_JNT
                                        {
                                            OFFSET 2.245 -0.0702143 -0.00838935
                                            CHANNELS 3 Zrotation Xrotation Yrotation
                                            End Site
                                            {
                                                OFFSET 0 0 0
                                            }
                                        }
                                    }
                                }
                                JOINT l_handPinky1_JNT
                                {
                                    OFFSET 8.49077 -0.0777721 -3.58415
                                    CHANNELS 3 Zrotation Xrotation Yrotation
                                    JOINT l_handPinky2_JNT
                                    {
                                        OFFSET 2.53217 -0.0730753 -0.0170402
                                        CHANNELS 3 Zrotation Xrotation Yrotation
                                        JOINT l_handPinky3_JNT
                                        {
                                            OFFSET 1.95121 0.0251174 0.0170089
                                            CHANNELS 3 Zrotation Xrotation Yrotation
                                            End Site
                                            {
                                                OFFSET 0 0 0
                                            }
                                        }
                                    }
                                }
                            }
                        }
                    }
                }
                JOINT r_shoulder_JNT
                {
                    OFFSET -4.39782 12.8606 -1.48501
                    CHANNELS 3 Zrotation Xrotation Yrotation
                    JOINT r_arm_JNT
                    {
                        OFFSET -8.75732 -2.312 -0.0490502
                        CHANNELS 3 Zrotation Xrotation Yrotation
                        JOINT r_forearm_JNT
                        {
                            OFFSET -26.9 0 1.00583e-05
                            CHANNELS 3 Zrotation Xrotation Yrotation
                            JOINT r_hand_JNT
                            {
                                OFFSET -23.0149 0 0
                                CHANNELS 3 Zrotation Xrotation Yrotation
                                JOINT r_handThumb1_JNT
                                {
                                    OFFSET -3.63 -0.779998 2.13
                                    CHANNELS 3 Zrotation Xrotation Yrotation
                                    JOINT r_handThumb2_JNT
                                    {
                                        OFFSET -3.5512 -2.118 2.24006
                                        CHANNELS 3 Zrotation Xrotation Yrotation
                                        JOINT r_handThumb3_JNT
                                        {
                                            OFFSET -2.1591 -1.116 0.963467
                                            CHANNELS 3 Zrotation Xrotation Yrotation
                                            End Site
                                            {
                                                OFFSET 0 0 0
                                            }
                                        }
                                    }
                                }
                                JOINT r_handIndex1_JNT
                                {
                                    OFFSET -10.5149 -0.0409961 2.19756
                                    CHANNELS 3 Zrotation Xrotation Yrotation
                                    JOINT r_handIndex2_JNT
                                    {
                                        OFFSET -2.7518 -0.102997 -0.13905
                                        CHANNELS 3 Zrotation Xrotation Yrotation
                                        JOINT r_handIndex3_JNT
                                        {
                                            OFFSET -2.353 -0.0730038 -0.0904899
                                            CHANNELS 3 Zrotation Xrotation Yrotation
                                            End Site
                                            {
                                                OFFSET 0 0 0
                                            }
                                        }
                                    }
                                }
                                JOINT r_handMiddle1_JNT
                                {
                                    OFFSET -10.0671 0.139999 0.05957
                                    CHANNELS 3 Zrotation Xrotation Yrotation
                                    JOINT r_handMiddle2_JNT
                                    {
                                        OFFSET -3.9091 -0.288999 -0.11907
                                        CHANNELS 3 Zrotation Xrotation Yrotation
                                        JOINT r_handMiddle3_JNT
                                        {
                                            OFFSET -2.3284 -0.019002 -0.05944
                                            CHANNELS 3 Zrotation Xrotation Yrotation
                                            End Site
                                            {
                                                OFFSET 0 0 0
                                            }
                                        }
                                    }
                                }
                                JOINT r_handRing1_JNT
                                {
                                    OFFSET -9.4681 0.133002 -1.80983
                                    CHANNELS 3 Zrotation Xrotation Yrotation
                                    JOINT r_handRing2_JNT
                                    {
                                        OFFSET -3.2816 -0.224996 -0.0339396
                                        CHANNELS 3 Zrotation Xrotation Yrotation
                                        JOINT r_handRing3_JNT
                                        {
                                            OFFSET -2.245 -0.0699997 -0.0083901
                                            CHANNELS 3 Zrotation Xrotation Yrotation
                                            End Site
                                            {
                                                OFFSET 0 0 0
                                            }
                                        }
                                    }
                                }
                                JOINT r_handPinky1_JNT
                                {
                                    OFFSET -8.4908 -0.0769973 -3.58415
                                    CHANNELS 3 Zrotation Xrotation Yrotation
                                    JOINT r_handPinky2_JNT
                                    {
                                        OFFSET -2.5322 -0.0740051 -0.0170402
                                        CHANNELS 3 Zrotation Xrotation Yrotation
                                        JOINT r_handPinky3_JNT
                                        {
                                            OFFSET -1.9512 0.0259995 0.0170097
                                            CHANNELS 3 Zrotation Xrotation Yrotation
                                            End Site
                                            {
                                                OFFSET 0 0 0
                                            }
                                        }
                                    }
                                }
                            }
                        }
                    }
                }
            }
        }
    }
    JOINT l_upleg_JNT
    {
        OFFSET 10.0614 -5.18575 -0.706233
        CHANNELS 3 Zrotation Xrotation Yrotation
        JOINT l_leg_JNT
        {
            OFFSET -0.348572 -45.5824 -0.819168
            CHANNELS 3 Zrotation Xrotation Yrotation
            JOINT l_foot_JNT
            {
                OFFSET 0.349145 -42.3325 -1.70849
                CHANNELS 3 Zrotation Xrotation Yrotation
                JOINT l_toebase_JNT
                {
                    OFFSET 0.0702709 -8.12666 12.8887
                    CHANNELS 3 Zrotation Xrotation Yrotation
                    End Site
                    {
                        OFFSET 0 0 0
                    }
                }
            }
        }
    }
    JOINT r_upleg_JNT
    {
        OFFSET -10.061 -5.18577 -0.706233
        CHANNELS 3 Zrotation Xrotation Yrotation
        JOINT r_leg_JNT
        {
            OFFSET 0.34858 -45.5824 -0.819165
            CHANNELS 3 Zrotation Xrotation Yrotation
            JOINT r_foot_JNT
            {
                OFFSET -0.34918 -42.3325 -1.70849
                CHANNELS 3 Zrotation Xrotation Yrotation
                JOINT r_toebase_JNT
                {
                    OFFSET -0.0702001 -8.12666 12.8887
                    CHANNELS 3 Zrotation Xrotation Yrotation
                    End Site
                    {
                        OFFSET 0 0 0
                    }
                }
            }
        }
    }
}
MOTION
Frames: 4
Frame Time: 0.04
103.137 99.0848 -5.15399 -9.26678 2.41277 -32.1418 3.93174 0.00634025 0 -4.00203e-07 -2.13444e-07 0 -2.18214 -0.108297 2.54883 2.12174 -0.0266523 -1.58852 3.75767 28.9209 -0.681846 5.33607e-08 -2.13443e-07 0 2.90752 -2.79859 13.1181 41.281 -2.81086 -7.45335 -1.90833e-11 -6.3982e-19 0 4.10661 20.7048 -22.2077 -0 0 0 -6.86116 -0.0410335 0.684138 -10.7991 3.21721 0.303902 -13.8941 4.12038 0.50202 -9.25382 2.76195 0.223812 -12.6298 2.50396 0.279765 -16.245 3.20231 0.456282 -10.8237 2.15088 0.197823 -14.4118 -1.42573 -0.185575 -18.5319 -1.82043 -0.29342 -12.3523 -1.22549 -0.125115 -15.7929 -3.11566 -0.435212 -20.318 -3.9726 -0.711066 -13.5332 -2.67959 -0.318981 5.33607e-08 -2.13443e-07 0 9.61928 -18.0989 42.757 -54.4799 -15.2865 29.2203 4.26884e-06 -1.70754e-06 0 -4.10661 20.7048 22.2077 -0 0 0 3.02926 0.00800612 0.301316 4.76377 1.42719 0.0395647 6.12567 1.83358 0.111906 4.08301 1.22368 0.0395647 5.57319 1.11274 0.0559529 7.16612 1.42919 0.0884693 4.77686 0.954177 0.0395647 6.36173 -0.634841 0 8.17959 -0.815128 0 5.45286 -0.544446 0 6.96698 -1.38969 0.068528 8.95869 -1.78387 0.142652 5.97139 -1.19194 0.0791294 -2.25883 -19.3889 -29.9257 -0.42382 28.8736 2.7067 -3.78988 -8.70662 -1.91922 -2.13439e-07 -8.53771e-07 0 48.4676 24.0016 -11.3581 -11.7966 4.52553 -0.857744 -2.40528 4.72861 3.99506 2.13442e-06 1.70753e-06 0 
95.9127 100.481 -6.87282 -6.72408 2.81656 -41.6097 4.23252 0.0114027 0.0395647 2.40116e-07 -2.53012e-12 0 -2.8792 -0.207248 3.77482 1.33251 0.826008 -1.00248 4.45057 28.5208 -0.790305 -3.66851e-07 -1.92097e-06 0 -1.28671 -3.36488 20.5037 43.4807 -2.15815 -5.40771 4.1621e-06 9.3914e-06 0 4.10661 20.7048 -22.2077 -0 0 0 -7.1525 -0.0445878 0.712165 -11.2587 3.3521 0.328649 -14.4863 4.29168 0.546795 -9.64743 2.87815 0.247081 -13.1669 2.60845 0.298707 -16.9364 3.3344 0.494163 -11.2838 2.24106 0.216705 -15.024 -1.48491 -0.189746 -19.3194 -1.89485 -0.326259 -12.877 -1.27667 -0.142652 -16.4649 -3.24438 -0.469805 -21.1838 -4.1337 -0.774298 -14.1088 -2.79112 -0.344917 -3.66851e-07 -1.92097e-06 0 20.453 -24.38 53.049 -47.0426 -19.3908 42.8629 -6.83006e-06 3.41503e-06 0 -4.10661 20.7048 22.2077 -0 0 0 2.97113 0.00770187 0.298707 4.67232 1.39986 0.0791294 6.00804 1.79852 0.0884693 4.00463 1.20024 0.0559529 5.46622 1.09145 0.0559529 7.02855 1.40191 0.111906 4.68518 0.935909 0.0559529 6.23965 -0.622707 0.0395647 8.02261 -0.79959 0.0395647 5.34821 -0.534029 0 6.83324 -1.36315 0.0884693 8.78667 -1.74991 0.125115 5.85677 -1.16915 0.068528 4.22758 -14.3596 -20.9404 -0.413535 20.243 2.22939 -3.145 -3.31066 -1.73951 -0.00225312 -0.826563 -0.30901 35.7724 27.2829 1.8688 -4.28192 4.46831 -0.850413 -3.71799 6.18143 3.53338 -2.13438e-06 -1.28062e-06 0 
94.0933 100.588 -6.92577 -3.23056 3.09577 -51.0691 4.81373 0.0184261 0 2.8625e-12 5.66952e-08 0 -3.57099 -0.326316 4.80758 0.949274 2.15866 -0.721989 2.07888 25.3843 -0.30901 -4.35419e-12 -3.20184e-07 0 -6.63655 -4.77884 27.8968 46.5973 -1.10442 -2.56353 1.0677e-07 -4.2677e-07 0 4.10661 20.7048 -22.2077 -0 0 0 -7.37954 -0.0474596 0.734883 -11.617 3.45707 0.356082 -14.9479 4.42486 0.578782 -9.95422 2.96861 0.256409 -13.5855 2.68972 0.316518 -17.4753 3.437 0.530816 -11.6424 2.31123 0.227282 -15.5012 -1.53091 -0.201741 -19.9332 -1.95259 -0.347179 -13.2859 -1.31648 -0.158259 -16.9888 -3.34438 -0.503577 -21.8587 -4.25859 -0.822338 -14.5574 -2.87784 -0.362616 -4.35419e-12 -3.20184e-07 0 29.877 -27.3679 65.6052 -39.3821 -18.3611 48.6076 -8.53845e-07 1.70757e-06 0 -4.10661 20.7048 22.2077 -0 0 0 2.99818 0.00784274 0.301316 4.71488 1.41258 0.0791294 6.06279 1.81484 0.0791294 4.04111 1.21115 0 5.516 1.10136 0.0559529 7.09257 1.41461 0.0969133 4.72785 0.944412 0 6.29647 -0.628355 0.0395647 8.09567 -0.806823 0.068528 5.39691 -0.538878 0.0559529 6.89548 -1.37551 0.0969133 8.86673 -1.76572 0.142652 5.91011 -1.17976 0.0559529 4.0126 -13.0658 -18.6316 -0.431442 17.7836 1.65937 -3.66733 -4.38334 6.18893 -0.00225275 -0.82627 -0.311533 20.685 25.7147 3.9697 -1.4687 1.70882 -1.03778 -3.75394 7.71556 2.82362 -2.5349e-11 2.56127e-06 0 
96.6339 100.023 -5.99009 0.317627 3.73096 -61.8275 5.84769 0.0217214 0 1.06721e-07 -2.1344e-07 0 -3.98666 -0.390227 5.07658 0.635351 4.44098 -0.492577 -0.745374 20.4387 0.0559529 5.57529e-16 6.66621e-09 0.0559529 -12.8049 -7.67394 37.6203 51.4023 -0.966254 0 3.25497e-06 8.53759e-07 0 4.10661 20.7048 -22.2077 -0 0 0 -7.55907 -0.0497936 0.752771 -11.9003 3.53998 0.369035 -15.3131 4.52997 0.609091 -10.1969 3.04008 0.279765 -13.9165 2.75389 0.333378 -17.9015 3.51791 0.552491 -11.926 2.36666 0.247081 -15.8785 -1.56721 -0.216705 -20.4185 -1.9981 -0.362616 -13.6093 -1.34792 -0.167859 -17.4031 -3.42326 -0.524885 -22.3925 -4.35694 -0.863201 -14.9122 -2.94628 -0.387653 5.57529e-16 6.66621e-09 0.0559529 39.854 -25.149 80.185 -33.6746 -15.4383 48.255 5.97634e-06 2.08899e-11 0 -4.10661 20.7048 22.2077 -0 0 0 3.25365 0.0092358 0.323851 5.1168 1.53264 0.0969133 6.57976 1.96882 0.0969133 4.38556 1.31415 0 5.98613 1.19488 0.068528 7.69718 1.53445 0.111906 5.13078 1.02468 0 6.83301 -0.681651 0 8.78557 -0.87505 0.0791294 5.8568 -0.58464 0 7.48327 -1.49207 0.104678 9.62277 -1.91481 0.158259 6.41385 -1.27988 0.068528 7.42027 -13.8872 -20.4317 -5.39391 27.298 1.95357 -1.53386 -5.03578 5.73843 -0.0387287 -19.8476 -0.71436 7.78367 19.4767 7.17668 0.425351 -1.29059 -1.16565 -3.77299 9.41006 1.42653 -0.316465 -18.6561 -0.918551 
